<svg width="333" height="338" viewBox="0 0 333 338" fill="none" xmlns="http://www.w3.org/2000/svg">
<path d="M194.543 272.605C180.123 258.185 156.735 258.187 142.312 272.61C127.89 287.032 127.892 310.416 142.312 324.836C156.742 339.266 180.118 339.266 194.543 324.841C208.968 310.416 208.973 287.035 194.543 272.605ZM277.676 147.448C263.256 161.868 263.256 185.254 277.676 199.674C292.106 214.104 315.482 214.093 329.902 199.674C344.324 185.251 344.335 161.875 329.904 147.445C315.485 133.025 292.101 133.023 277.676 147.448ZM309.14 226.348C305.087 225.925 299.927 225.905 294.259 226.139C276.18 223.809 257.262 229.523 243.377 243.407C231.02 255.764 225.144 272.105 225.631 288.294C225.051 296.634 224.874 304.388 225.466 310.027L225.839 313.779C227.567 331.265 229.712 353.026 250.067 373.237C268.973 392.004 299.646 391.999 318.428 373.217C323.651 368.016 327.603 361.678 329.973 354.699C332.344 347.719 333.071 340.287 332.096 332.98C339.404 333.955 346.839 333.228 353.82 330.856C360.801 328.484 367.139 324.53 372.34 319.304C391.114 300.53 391.119 269.862 372.353 250.952C352.142 230.596 330.378 228.454 312.894 226.724L309.14 226.348Z" fill="#F2A4E6"/>
<path d="M228.549 224.92C244.441 209.028 244.441 183.261 228.549 167.369C212.657 151.477 186.89 151.477 170.998 167.369C155.106 183.261 155.106 209.028 170.998 224.92C186.89 240.812 212.657 240.812 228.549 224.92Z" fill="#F2A4E6"/>
</svg>
